<?xml version="1.0" encoding="utf-8"?>
<!-- Generator: Adobe Illustrator 26.0.1, SVG Export Plug-In . SVG Version: 6.00 Build 0)  -->
<svg version="1.1" id="Lager_1" xmlns="http://www.w3.org/2000/svg" xmlns:xlink="http://www.w3.org/1999/xlink" x="0px" y="0px"
	 viewBox="0 0 362 362" style="enable-background:new 0 0 362 362;" xml:space="preserve">
<style type="text/css">
	.st0{fill:rgb(207, 207, 207);}
</style>
<path class="st0" d="M290.38,107.89c0,8.64-6.98,15.62-16.06,15.62H86.81c-8.19,0-15.19-7.88-15.19-16.06s7-15.19,15.19-15.19
	h187.94C283.39,92.27,290.38,99.25,290.38,107.89z M290.38,186.02c0,8.64-6.98,15.62-16.06,15.62H86.81
	c-8.19,0-15.19-6.98-15.19-15.62s7-15.62,15.19-15.62h187.94C283.39,170.39,290.38,177.37,290.38,186.02z M290.38,264.14
	c0,8.64-6.98,15.62-16.06,15.62H86.81c-8.19,0-15.19-7.86-15.19-16.06s7-15.19,15.19-15.19h187.94
	C283.39,248.52,290.38,255.5,290.38,264.14z"/>
</svg>
